<?xml version="1.0" standalone="no"?>
<!DOCTYPE svg PUBLIC "-//W3C//DTD SVG 20010904//EN"
 "http://www.w3.org/TR/2001/REC-SVG-20010904/DTD/svg10.dtd">
<svg version="1.0" xmlns="http://www.w3.org/2000/svg"
 width="512.000000pt" height="512.000000pt" viewBox="0 0 512.000000 512.000000"
 preserveAspectRatio="xMidYMid meet">
<metadata>
Created by potrace 1.11, written by Peter Selinger 2001-2013
</metadata>
<g transform="translate(0.000000,512.000000) scale(0.100000,-0.100000)"
fill="#000000" stroke="none">
<path d="M1204 5106 c-73 -33 -182 -190 -238 -344 -86 -239 -69 -514 46 -737
37 -71 826 -1255 837 -1255 7 0 518 759 523 778 2 5 -16 38 -39 73 -42 66
-338 513 -734 1114 -138 208 -236 347 -254 359 -38 25 -101 30 -141 12z"/>
<path d="M3790 5102 c-44 -23 -18 14 -766 -1112 -338 -509 -786 -1182 -995
-1497 l-381 -572 -36 23 c-166 104 -371 157 -582 152 -141 -4 -241 -25 -366
-76 -317 -129 -545 -388 -630 -715 -48 -183 -37 -440 25 -600 25 -66 106 -219
141 -265 161 -217 405 -372 660 -421 95 -18 282 -19 375 -3 472 81 837 483
869 956 2 39 46 130 76 158 3 3 167 248 365 545 198 297 362 542 365 545 10
10 1106 1651 1157 1732 99 158 144 330 138 523 -3 121 -6 138 -36 240 -54 182
-182 371 -267 395 -52 14 -72 13 -112 -8z m-2595 -3625 c149 -48 270 -181 304
-336 5 -24 8 -73 7 -110 -9 -250 -221 -440 -473 -426 -115 7 -219 54 -301 137
-78 79 -121 173 -127 281 -12 225 130 406 365 466 45 11 174 5 225 -12z"/>
<path d="M3007 1827 c-141 -211 -257 -388 -259 -394 -2 -8 154 -256 172 -273
3 -3 25 -36 49 -73 33 -51 45 -80 47 -115 31 -456 373 -850 824 -948 103 -22
294 -26 399 -8 446 78 787 421 865 869 14 78 14 275 1 340 -87 431 -395 751
-820 851 -94 22 -289 26 -393 9 -134 -22 -272 -73 -379 -140 l-43 -26 -96 146
c-52 80 -99 145 -103 145 -4 0 -123 -172 -264 -383z m1168 -342 c62 -16 150
-69 201 -119 88 -89 135 -209 130 -334 -17 -392 -491 -574 -766 -293 -241 246
-123 659 213 745 54 14 170 14 222 1z"/>
</g>
</svg>
